<svg fill="#fff" id="Capa_1" enable-background="new 0 0 512 512" height="25" viewBox="0 0 512 512" width="30" xmlns="http://www.w3.org/2000/svg"><g><path d="m479.748 215.16 30.24-52.38c4.107-7.114 1.729-16.209-5.337-20.4-91.881-54.504-41.852-25.298-241.151-140.37-4.641-2.68-10.359-2.68-15 0-202.911 117.148-151.022 86.905-241.15 140.369-7.065 4.191-9.445 13.286-5.338 20.4l30.24 52.38c4.15 7.19 13.365 9.643 20.543 5.46l2.909-1.695 45.682 280.486c1.182 7.258 7.451 12.589 14.805 12.589h279.619c7.353 0 13.623-5.331 14.805-12.589l45.682-280.486 2.909 1.695c7.176 4.182 16.392 1.731 20.542-5.459zm-279.548 266.84v-119.345c0-11.034 8.976-20.011 20.011-20.011h71.579c11.034 0 20.011 8.977 20.011 20.011v119.345zm182.854 0h-41.254v-119.345c0-27.576-22.434-50.011-50.01-50.011h-71.58c-27.576 0-50.01 22.435-50.01 50.011v119.345h-41.255l-45.481-279.251 172.536-100.538 172.536 100.538zm78.244-294.883c-1.355-.79-193.194-112.575-197.746-115.228-4.685-2.729-10.469-2.699-15.103 0-2.209 1.287-185.369 108.015-197.746 115.228l-15.3-26.502c71.907-42.688 35.599-21.494 220.597-128.295 180.932 104.462 146.842 84.51 220.598 128.295z"/><path d="m185.806 200.854c-5.857-5.857-15.355-5.858-21.213 0s-5.858 15.355 0 21.213l13.932 13.933-13.932 13.932c-5.858 5.858-5.858 15.355 0 21.213 5.857 5.858 15.354 5.858 21.213 0l20.145-20.145h100.305l19.937 19.938c5.857 5.857 15.355 5.858 21.213-.001 5.858-5.858 5.858-15.355 0-21.213l-13.724-13.724 13.724-13.724c5.858-5.857 5.858-15.355 0-21.213-5.857-5.858-15.355-5.857-21.213 0l-19.937 19.937h-100.305z"/></g></svg>