<svg fill="#fff" id="Layer_1" height="30" viewBox="0 0 512 512" width="30" xmlns="http://www.w3.org/2000/svg"  data-name="Layer 1"><path d="m28.845 135.938c12.567 4.7 22.262 8.858 22.359 8.9.127.055.276.112.406.157 1.191.417 29.16 10.542 28.768 40.678-.591 45.4 10.825 74.619 34.869 89.262 1.105 1.72 2.308 3.431 3.636 5.122a70.279 70.279 0 0 1 14.085 32.587l8.226 52.986a70.407 70.407 0 0 1 -.755 25.761l-4.332 20.054a4.374 4.374 0 0 1 -3.55 3.407l-.394.062a13.8 13.8 0 0 0 2.221 27.419h27.158a16.351 16.351 0 0 0 15.467-10.946l7.564.626a45.736 45.736 0 0 0 6.295.507c4.407 0 8.68-.965 11.269-4.368 3.756-4.937 1.189-10.812-.51-14.7-.168-.382-.331-.757-.484-1.12-5.252-12.468-3.608-25.578-1.333-43.722 2.242-17.874 4.989-39.809 2.691-70.261 3.742.305 7.818.5 12.2.5q1.735 0 3.534-.04c17.844-.41 43.072-4.231 70.77-18.285a361.789 361.789 0 0 0 42.212 44.469c15.171 13.649 32.906 37.406 35.993 57.313l.327 2.083c.826 5.229 1.762 11.156 1.593 15.8a4.709 4.709 0 0 1 -3.305 4.219 79.392 79.392 0 0 0 -18.268 8.467 13.8 13.8 0 0 0 7.611 25.274c.236 0 .474-.005.713-.017l15.5-.7a13.66 13.66 0 0 0 11.99 7.02l30.209-1.49a16.608 16.608 0 0 0 15.324-20.511l-3.357-13.774a19.6 19.6 0 0 1 -.535-5.6l2.84-58.351a31.778 31.778 0 0 0 -2.648-14.287c-18.159-41.192-16.345-49.48-13.341-63.212 2.129-9.73 4.779-21.839 2.482-46.774a74.69 74.69 0 0 0 -5.374-22.567 5.548 5.548 0 0 1 2.685-7.3c93.344-43.06 95.305-97.815 95.344-100.125a6 6 0 0 0 -11.249-3c-8.15 14.732-35.523 51.745-113.471 77.209a29.874 29.874 0 0 1 -16.336.535c-24.255-5.9-55.913-5.2-95.993-4.308-8.494.188-17.277.382-26.371.518-38.581.578-65.64-5.441-82.769-18.4-14.575-11.029-20.263-25.733-25.763-39.953-.878-2.269-1.745-4.509-2.633-6.7-7.485-18.462-27.222-28.985-54.179-28.816a30.033 30.033 0 0 0 -17.016 5.412l-5.635 3.913a19.516 19.516 0 0 1 -9.19 3.382l-32.583 3.217a9.763 9.763 0 0 0 -8.472 12.265c4.306 15.939 11.879 35.851 23.505 40.203zm148.544 283.427c-.2-1.907-.4-3.846-.6-5.756-.633-6-1.231-11.673-1.39-14.695-.37-7.085 2.886-38.837 8.934-87.115a101.534 101.534 0 0 0 .715-16c1.569.343 3.343.693 5.3 1.029 2.542 30.545-.206 52.5-2.438 70.293-2.414 19.243-4.32 34.443 2.18 49.873.173.411.358.835.546 1.267.259.592.635 1.451.937 2.242zm193.192 6.094-15.264.685a1.686 1.686 0 0 1 -1.821-1.277 1.565 1.565 0 0 1 .666-1.971 67.394 67.394 0 0 1 15.41-7.088 16.752 16.752 0 0 0 11.555-15.185c.21-5.808-.822-12.344-1.733-18.11l-.322-2.05c-3.556-22.933-22.565-48.866-39.826-64.4a353.238 353.238 0 0 1 -39.576-41.415c2.62-1.555 5.253-3.194 7.9-4.945 11.641 17.553 28.913 38.378 54.561 61.452a88.7 88.7 0 0 1 28.6 51.995c1.291 8.321.623 22-1.168 28.018a49.043 49.043 0 0 0 -15.672 9.477 13.768 13.768 0 0 0 -3.31 4.814zm-323.007-333.259a31.534 31.534 0 0 0 14.855-5.468l5.635-3.912a18.076 18.076 0 0 1 10.236-3.274c29.823-.181 39.733 13.287 42.99 21.319.865 2.132 1.708 4.312 2.562 6.52 1.668 4.313 3.4 8.777 5.408 13.255-.117 12.665-8.577 24.026-15.794 31.407a5.589 5.589 0 0 1 -9.014-1.373c-3.859-7.6-4.13-15.247-.807-22.738 5.962-13.438 4.532-23.606 2.283-29.769a6 6 0 1 0 -11.273 4.114c2.17 5.945 1.5 12.939-1.978 20.789-4.79 10.8-4.418 22.22 1.075 33.038a17.416 17.416 0 0 0 13.025 9.441 17.97 17.97 0 0 0 2.734.21 17.416 17.416 0 0 0 12.535-5.323c5.823-5.955 12.315-14.153 16.074-23.851 14.011 20.034 39.99 36.866 100.552 36.865 1.665 0 3.366-.014 5.084-.039 9.136-.137 17.942-.332 26.457-.52 37.649-.832 70.165-1.553 92.893 3.971a41.837 41.837 0 0 0 22.9-.789c20.266-6.62 62.046-22.6 93.094-49.993-19.094 25.353-49.481 43-72.467 53.608a17.483 17.483 0 0 0 -8.687 22.931 62.817 62.817 0 0 1 4.453 18.936c2.126 23.084-.3 34.187-2.255 43.108-3.716 16.982-4.777 27.836 14.083 70.619a19.716 19.716 0 0 1 1.642 8.863l-2.839 58.349a31.565 31.565 0 0 0 .861 9.027l3.357 13.773a4.609 4.609 0 0 1 -4.263 5.686l-29.494 1.472a1.716 1.716 0 0 1 -1.765-1.119 1.6 1.6 0 0 1 .392-1.944c5.623-5.293 13.553-7.644 13.617-7.662a6 6 0 0 0 3.63-2.913c4.291-7.922 4.777-27.5 3.226-37.5a100.725 100.725 0 0 0 -32.432-59.077c-20.71-18.631-48.723-47.617-64.569-79.908-9.345-19.043-10.043-30.423-10.059-30.721a6 6 0 0 0 -11.992.44c.041 1.213.945 18.929 17.67 47.48-32.324 21.459-62.6 26.724-82.684 27.264a126.558 126.558 0 0 1 -34.686-3.638 101.97 101.97 0 0 0 -4.927-19.072l-6.765-18.5a6 6 0 1 0 -11.269 4.122l6.764 18.5a90.392 90.392 0 0 1 4.783 42.1c-4.4 35.137-9.537 79.141-9.009 89.233.174 3.339.789 9.162 1.439 15.326.378 3.588.769 7.292 1.087 10.646a4.408 4.408 0 0 1 -4.4 4.82h-27.158a1.8 1.8 0 0 1 -.3-3.574l.327-.052a16.445 16.445 0 0 0 13.421-12.729l4.332-20.054a82.385 82.385 0 0 0 .885-30.134l-8.223-52.986a82.306 82.306 0 0 0 -16.506-38.158c-18.352-23.367-9.418-52.457-9.33-52.733a6 6 0 1 0 -11.419-3.69 77.508 77.508 0 0 0 -2.042 32.65c-9.182-14.345-13.514-35.2-13.152-63.043.4-30.985-23.66-47.57-36.642-52.105-1.507-.643-10.695-4.538-22.683-9.025-3.952-1.475-10.152-11.172-15.419-29.545z"/></svg>